<?xml version="1.0" encoding="UTF-8" standalone="no"?>

<svg
   xmlns:dc="http://purl.org/dc/elements/1.1/"
   xmlns:cc="http://creativecommons.org/ns#"
   xmlns:rdf="http://www.w3.org/1999/02/22-rdf-syntax-ns#"
   xmlns:svg="http://www.w3.org/2000/svg"
   xmlns="http://www.w3.org/2000/svg"
   xmlns:sodipodi="http://sodipodi.sourceforge.net/DTD/sodipodi-0.dtd"
   xmlns:inkscape="http://www.inkscape.org/namespaces/inkscape"
   version="1.1"
   inkscape:version="0.47 r22583"
   width="100%"
   xml:space="preserve"
   sodipodi:docname="small_accel.svg"
   viewBox = "30 10 400 200">

   <metadata
     id="metadata2903"><rdf:RDF><cc:Work
         rdf:about=""><dc:format>image/svg+xml</dc:format><dc:type
           rdf:resource="http://purl.org/dc/dcmitype/StillImage" /><dc:title></dc:title></cc:Work></rdf:RDF></metadata><defs
     id="defs2901"><inkscape:perspective
       sodipodi:type="inkscape:persp3d"
       inkscape:vp_x="0 : 0.5 : 1"
       inkscape:vp_y="0 : 1000 : 0"
       inkscape:vp_z="1 : 0.5 : 1"
       inkscape:persp3d-origin="0.5 : 0.33333333 : 1"
       id="perspective2905" /><clipPath
       clipPathUnits="userSpaceOnUse"
       id="clipPath2913"><path
         d="m 0,161.426 800,0 L 800,0 0,0 0,161.426 z"
         id="path2915" /></clipPath><clipPath
       clipPathUnits="userSpaceOnUse"
       id="clipPath2945"><path
         d="m 0,161.426 800,0 L 800,0 0,0 0,161.426 z"
         id="path2947" /></clipPath><clipPath
       clipPathUnits="userSpaceOnUse"
       id="clipPath2977"><path
         d="m 0,161.426 800,0 L 800,0 0,0 0,161.426 z"
         id="path2979" /></clipPath><clipPath
       clipPathUnits="userSpaceOnUse"
       id="clipPath3003"><path
         d="m 0,161.426 800,0 L 800,0 0,0 0,161.426 z"
         id="path3005" /></clipPath><clipPath
       clipPathUnits="userSpaceOnUse"
       id="clipPath3081"><path
         d="m 0,161.426 800,0 L 800,0 0,0 0,161.426 z"
         id="path3083" /></clipPath><clipPath
       clipPathUnits="userSpaceOnUse"
       id="clipPath3155"><path
         d="m 0,161.426 800,0 L 800,0 0,0 0,161.426 z"
         id="path3157" /></clipPath><clipPath
       clipPathUnits="userSpaceOnUse"
       id="clipPath3187"><path
         d="m 0,161.426 800,0 L 800,0 0,0 0,161.426 z"
         id="path3189" /></clipPath></defs><sodipodi:namedview
     pagecolor="#ffffff"
     bordercolor="#666666"
     borderopacity="1"
     objecttolerance="10"
     gridtolerance="10"
     guidetolerance="10"
     inkscape:pageopacity="0"
     inkscape:pageshadow="2"
     inkscape:window-width="1280"
     inkscape:window-height="948"
     id="namedview2899"
     showgrid="false"
     inkscape:zoom="0.537"
     inkscape:cx="500"
     inkscape:cy="100.89125"
     inkscape:window-x="0"
     inkscape:window-y="25"
     inkscape:window-maximized="1"
     inkscape:current-layer="g2907" /><g
     id="g2907"
     inkscape:groupmode="layer"
     inkscape:label="challenge (1)"
     transform="matrix(1.25,0,0,-1.25,0,201.7825)"><g
       id="g2909"
       transform="translate(-3.2,0)"><g
         id="g2911"
         clip-path="url(#clipPath2913)"><g
           id="g2917"
           transform="translate(213.2383,82.082)"><path
             d="m 0,0 c -43.975,0 -79.623,13.704 -79.623,30.608 0,16.906 35.648,30.61 79.623,30.61 43.975,0 79.624,-13.704 79.624,-30.61 C 79.624,13.704 43.975,0 0,0 m 0,64.278 c -53.884,0 -97.565,-22.885 -97.565,-51.116 0,-28.231 43.681,-51.117 97.565,-51.117 53.884,0 97.565,22.886 97.565,51.117 0,28.231 -43.681,51.116 -97.565,51.116"
             style="fill:#2c3e50;fill-opacity:1;fill-rule:nonzero;stroke:none"
             id="path2919" /></g><g
           id="g2921"
           transform="translate(262.6841,63)"><path
             d="m 0,0 c 0,-28.35 -22.981,-51.33 -51.33,-51.33 -28.349,0 -51.33,22.98 -51.33,51.33 0,28.35 22.981,51.33 51.33,51.33 C -22.981,51.33 0,28.35 0,0"
             style="fill:#ecf0f1;fill-opacity:1;fill-rule:nonzero;stroke:none"
             id="path2923" /></g><g
           id="g2925"
           transform="translate(262.6841,63)"><path
             d="m 0,0 c 0,-28.35 -22.981,-51.33 -51.33,-51.33 -28.349,0 -51.33,22.98 -51.33,51.33 0,28.35 22.981,51.33 51.33,51.33 C -22.981,51.33 0,28.35 0,0 z"
             style="fill:none;stroke:#34495e;stroke-width:4;stroke-linecap:butt;stroke-linejoin:miter;stroke-miterlimit:10;stroke-opacity:1;stroke-dasharray:none"
             id="path2927" /></g></g></g><text
       transform="scale(1,-1)"
       id="text2929"
       x="181.02849"
       y="-78.989304"><tspan
         style="font-size:18px;font-variant:normal;font-weight:bold;font-stretch:normal;writing-mode:lr-tb;fill:#000000;fill-opacity:1;fill-rule:nonzero;stroke:none;font-family:Myriad Pro;-inkscape-font-specification:MyriadPro-Bold"
         x="181.02849 192.83649 202.0345 211.6465 222.10449"
         y="-78.989304"
         sodipodi:role="line"
         class="accel_name"
         id="tspan2931">ALEPH</tspan></text>
<text
       transform="scale(1,-1)"
       id="text2937"
       x="182.17889"
       y="-41.529301"><tspan
         style="font-size:28px;font-variant:normal;font-weight:bold;font-stretch:normal;writing-mode:lr-tb;fill:#27ae60;fill-opacity:1;fill-rule:nonzero;stroke:none;font-family:Myriad Pro;-inkscape-font-specification:MyriadPro-Bold"
         x="182.17889 197.71889 213.2589"
         y="-41.529301"
         sodipodi:role="line"
         id="tspan2939">99%</tspan></text>
<g
       id="g2999"
       transform="translate(-3.2,0)"><g
         id="g3001"
         clip-path="url(#clipPath3003)"><g
           id="g3059"
           transform="translate(81.2725,121.4678)"><path
             d="m 0,0 c -0.656,0.629 -1.072,1.503 -1.103,2.474 -0.09,0.006 -0.179,0.013 -0.272,0.013 l -2.458,0 c -2.046,0 -3.71,-1.664 -3.71,-3.71 l 0,-3.007 0.007,-0.047 0.207,-0.066 c 1.566,-0.489 2.964,-0.714 4.179,-0.784 l 0,0.907 c 0,1.992 1.33,3.68 3.15,4.22 m -2.604,2.685 c 0.568,0 1.094,0.166 1.541,0.447 0.143,0.927 0.639,1.737 1.349,2.289 0.003,0.054 0.008,0.107 0.008,0.162 0,1.601 -1.298,2.897 -2.898,2.897 -1.6,0 -2.898,-1.296 -2.898,-2.897 0,-1.602 1.298,-2.898 2.898,-2.898 m 15.887,2.718 -2.439,0 C 10.816,4.427 10.4,3.547 9.742,2.916 c 1.819,-0.541 3.149,-2.228 3.149,-4.22 l 0,-0.926 c 2.408,0.088 3.797,0.771 3.888,0.817 l 0.194,0.098 0.021,0 0,3.008 c 0,2.046 -1.665,3.71 -3.711,3.71 M 9.158,8.542 c 0.914,-0.572 1.555,-1.541 1.671,-2.666 0.372,-0.175 0.786,-0.275 1.225,-0.275 1.6,0 2.897,1.298 2.897,2.898 0,1.601 -1.297,2.897 -2.897,2.897 -1.585,0 -2.872,-1.274 -2.896,-2.854 m -0.652,-6.055 -2.441,0 C 6.039,1.511 5.623,0.632 4.963,0 6.781,-0.541 8.112,-2.228 8.112,-4.22 l 0,-0.926 c 2.409,0.088 3.798,0.771 3.89,0.817 l 0.193,0.099 0.021,0 0,3.007 c 0,2.046 -1.665,3.71 -3.71,3.71 m -4.795,-2.991 -2.459,0 c -2.045,0 -3.711,-1.665 -3.711,-3.711 l 0,-3.007 0.008,-0.048 0.207,-0.064 c 1.953,-0.609 3.649,-0.813 5.045,-0.813 2.727,0 4.308,0.777 4.406,0.827 l 0.193,0.098 0.022,0 0,3.007 c 0,2.046 -1.664,3.711 -3.711,3.711 m -1.229,0.197 c 1.6,0 2.897,1.298 2.897,2.898 0,1.599 -1.297,2.898 -2.897,2.898 -1.601,0 -2.898,-1.299 -2.898,-2.898 0,-1.6 1.297,-2.898 2.898,-2.898 M 4.381,5.627 C 5.294,5.054 5.935,4.085 6.052,2.96 6.424,2.785 6.838,2.685 7.276,2.685 c 1.601,0 2.898,1.298 2.898,2.898 0,1.601 -1.297,2.897 -2.898,2.897 C 5.69,8.48 4.404,7.207 4.381,5.627 M 3.848,5.909 C 3.879,6.594 4.115,7.228 4.494,7.752 4.229,7.808 3.953,7.837 3.671,7.837 l -2.669,0 C 0.721,7.837 0.446,7.808 0.181,7.753 0.584,7.192 0.826,6.509 0.83,5.77 c 0.49,0.269 1.054,0.422 1.652,0.422 0.485,0 0.947,-0.1 1.366,-0.283 m -4.657,5.288 c 0,1.738 1.409,3.146 3.145,3.146 1.737,0 3.146,-1.408 3.146,-3.146 0,-1.737 -1.409,-3.144 -3.146,-3.144 -1.736,0 -3.145,1.407 -3.145,3.144"
             style="fill:#34495e;fill-opacity:1;fill-rule:nonzero;stroke:none"
             id="path3061" /></g></g></g><text
       transform="scale(1,-1)"
       id="text3063"
       x="51.045601"
       y="-119.3018"><tspan
         style="font-size:17.3689003px;font-variant:normal;font-weight:bold;font-stretch:normal;writing-mode:lr-tb;fill:#34495e;fill-opacity:1;fill-rule:nonzero;stroke:none;font-family:Myriad Pro;-inkscape-font-specification:MyriadPro-Bold"
         x="51.045601"
         y="-119.3018"
         id="tspan3065">1</tspan></text>
<text
       transform="scale(1,-1)"
       id="text3067"
       x="54.011902"
       y="-59.330101"><tspan
         style="font-size:12.02460003px;font-variant:normal;font-weight:bold;font-stretch:normal;writing-mode:lr-tb;fill:#34495e;fill-opacity:1;fill-rule:nonzero;stroke:none;font-family:Myriad Pro;-inkscape-font-specification:MyriadPro-Bold"
         x="54.011902"
         y="-59.330101"
         id="tspan3069">0</tspan><tspan
         style="font-size:12.02460003px;font-variant:normal;font-weight:bold;font-stretch:normal;writing-mode:lr-tb;fill:#7f8c8d;fill-opacity:1;fill-rule:nonzero;stroke:none;font-family:Myriad Pro;-inkscape-font-specification:MyriadPro-Bold"
         x="24.190889 30.864546 37.5382 40.664597 47.338249 54.011902"
         y="-47.185253"
         sodipodi:role="line"
         id="tspan3071">60,000</tspan></text>
<text
       transform="scale(1,-1)"
       id="text3073"
       x="44.190605"
       y="-85.4375"><tspan
         style="font-size:17.3689003px;font-variant:normal;font-weight:bold;font-stretch:normal;writing-mode:lr-tb;fill:#34495e;fill-opacity:1;fill-rule:nonzero;stroke:none;font-family:Myriad Pro;-inkscape-font-specification:MyriadPro-Bold"
         x="44.190605 53.830345"
         y="-85.4375"
         sodipodi:role="line"
         id="tspan3075">52</tspan></text>
<g
       id="g3077"
       transform="translate(-3.2,0)"><g
         id="g3079"
         clip-path="url(#clipPath3081)"><g
           id="g3085"
           transform="translate(76.126,80.4189)"><path
             d="m 0,0 -0.004,0.006 c 0.481,-0.191 1,-0.302 1.547,-0.302 2.17,0 3.955,1.631 4.207,3.733 C 5.207,3.229 4.621,3.11 4.008,3.11 3.287,3.11 2.605,3.271 1.988,3.552 L 1.869,2.604 -1.102,2.604 -0.473,0.788 -1.75,2.91 1.193,3.319 1.184,4.015 c -1.249,0.886 -2.069,2.341 -2.069,3.987 0,0.185 0.014,0.368 0.033,0.548 C -2.642,7.854 -3.79,6.004 -3.514,4.019 -3.279,2.329 -1.531,0.466 0,0"
             style="fill:#34495e;fill-opacity:1;fill-rule:nonzero;stroke:none"
             id="path3087" /></g><g
           id="g3089"
           transform="translate(84.5244,90.5635)"><path
             d="m 0,0 -0.479,-0.507 -0.501,-0.531 -0.684,-0.725 0.84,0 0.654,0 0.652,0 1.872,0 -1.867,-0.664 -0.674,-0.239 -0.702,-0.25 -2.477,-0.881 -0.386,-0.138 0.533,-0.092 1.672,-0.294 0.714,-0.124 0.687,-0.121 0.704,-0.123 C 0.277,-4.736 -0.012,-4.78 -0.303,-4.823 -0.604,-4.867 -0.905,-4.905 -1.21,-4.94 c -0.364,-0.044 -0.726,-0.08 -1.08,-0.105 -0.163,-0.013 -0.32,-0.021 -0.478,-0.028 -0.238,-0.011 -0.478,-0.025 -0.703,-0.025 -1.586,0 -2.002,0.314 -2.091,0.41 -0.206,0.22 -0.377,0.417 -0.53,0.605 -0.896,1.102 -0.943,1.752 -0.943,3.389 l 0,0.965 0,0.896 0,0.798 0,0.128 0.068,-0.085 0.411,-0.511 0.412,-0.513 0.289,-0.358 0.121,0.555 0.164,0.747 0.156,0.712 0.406,1.852 0.32,-1.758 0.119,-0.645 0.118,-0.647 0.059,-0.324 0.226,0.317 0.435,0.607 0.418,0.585 3.292,4.601 -1.677,-5.29 -0.206,-0.65 -0.209,-0.66 -0.013,-0.035 0.029,0.019 0.553,0.38 0.55,0.378 L 5.525,5.854 0,0 z M 3.707,14.687 -3.664,4.38 l -1.231,6.736 -1.654,-7.549 -1.793,2.23 0,-5.066 0,-1.341 0,-0.083 c 0,-0.233 0.003,-0.45 0.008,-0.658 0.035,-1.395 0.229,-2.257 1.102,-3.39 0.201,-0.261 0.435,-0.535 0.715,-0.836 0.064,-0.068 0.134,-0.131 0.211,-0.192 0.447,-0.343 1.127,-0.541 2.081,-0.605 0.236,-0.016 0.483,-0.027 0.752,-0.027 0.276,0 0.558,0.008 0.848,0.023 0.25,0.015 0.504,0.032 0.762,0.056 2.828,0.247 5.933,1.008 6.09,1.046 l 3.003,0.741 -5.88,1.031 8.566,3.046 -8.555,0 L 14.898,13.886 0.265,3.819 3.707,14.687 z"
             style="fill:#34495e;fill-opacity:1;fill-rule:nonzero;stroke:none"
             id="path3091" /></g><g
           id="g3093"
           transform="translate(92.833,82.6982)"><path
             d="m 0,0 -9.343,0.45 9.134,-1.259 C 1.184,-0.497 0,0 0,0"
             style="fill:#34495e;fill-opacity:1;fill-rule:nonzero;stroke:none"
             id="path3095" /></g><g
           id="g3097"
           transform="translate(76.7393,101.1689)"><path
             d="m 0,0 0.746,-5.063 c 0,0 -0.19,5.751 -0.109,6.4 C 0.717,1.985 -0.32,2.178 0,0"
             style="fill:#34495e;fill-opacity:1;fill-rule:nonzero;stroke:none"
             id="path3099" /></g><g
           id="g3101"
           transform="translate(91.668,103.0713)"><path
             d="m 0,0 -4.771,-5.663 c 0,0 6.068,5.682 6.852,6.206 C 2.866,1.066 2.052,2.436 0,0"
             style="fill:#34495e;fill-opacity:1;fill-rule:nonzero;stroke:none"
             id="path3103" /></g><g
           id="g3105"
           transform="translate(99.958,50.5029)"><path
             d="M 0,0 C -0.002,0.062 -0.004,0.122 -0.006,0.183 -0.008,0.245 -0.01,0.307 -0.013,0.367 l -0.002,0.046 -0.001,0.024 0,0.005 0,0.052 0,0.003 -0.002,0.009 -0.005,0.077 -0.024,0.308 -0.006,0.078 -0.01,0.1 c -0.005,0.067 -0.012,0.134 -0.018,0.202 -0.007,0.066 -0.013,0.132 -0.02,0.199 -0.003,0.033 -0.006,0.066 -0.01,0.099 -0.004,0.032 -0.008,0.062 -0.012,0.092 -0.033,0.242 -0.064,0.481 -0.106,0.709 -0.02,0.115 -0.039,0.228 -0.06,0.337 -0.024,0.109 -0.045,0.217 -0.066,0.321 -0.041,0.208 -0.094,0.405 -0.137,0.584 -0.012,0.045 -0.023,0.089 -0.033,0.132 -0.012,0.043 -0.024,0.085 -0.036,0.125 -0.022,0.082 -0.044,0.158 -0.064,0.232 -0.021,0.071 -0.039,0.14 -0.059,0.202 -0.019,0.062 -0.038,0.119 -0.054,0.171 -0.026,0.076 -0.045,0.139 -0.061,0.189 -0.024,0.075 -0.103,0.116 -0.178,0.095 L -5.699,3.412 C -5.771,3.392 -5.815,3.32 -5.802,3.247 -5.797,3.219 -5.791,3.188 -5.784,3.152 -5.777,3.116 -5.77,3.077 -5.762,3.035 -5.754,2.993 -5.748,2.946 -5.74,2.896 -5.732,2.847 -5.725,2.793 -5.717,2.737 -5.713,2.71 -5.707,2.681 -5.703,2.652 -5.7,2.622 -5.697,2.592 -5.693,2.563 -5.68,2.438 -5.66,2.307 -5.652,2.165 -5.646,2.095 -5.64,2.022 -5.634,1.949 -5.629,1.875 -5.627,1.799 -5.623,1.722 -5.613,1.569 -5.615,1.41 -5.611,1.248 l 0,-0.06 -0.002,-0.052 C -5.614,1.101 -5.615,1.064 -5.617,1.029 -5.618,0.994 -5.619,0.959 -5.619,0.923 L -5.621,0.87 -5.624,0.793 C -5.629,0.69 -5.633,0.587 -5.637,0.485 l -0.004,-0.077 0,-0.01 0,-0.002 c 0,-0.011 -0.002,0.091 -0.001,0.047 L -5.643,0.439 -5.644,0.424 -5.646,0.394 C -5.65,0.354 -5.653,0.313 -5.657,0.273 -5.66,0.233 -5.664,0.193 -5.668,0.153 -5.672,0.114 -5.678,0.075 -5.682,0.036 -5.691,-0.042 -5.697,-0.119 -5.711,-0.194 -5.721,-0.27 -5.732,-0.344 -5.742,-0.415 -5.754,-0.487 -5.768,-0.558 -5.779,-0.627 -5.79,-0.695 -5.804,-0.761 -5.816,-0.825 -5.83,-0.889 -5.842,-0.95 -5.855,-1.009 -5.869,-1.067 -5.881,-1.124 -5.895,-1.177 -5.9,-1.204 -5.906,-1.229 -5.912,-1.254 -5.918,-1.276 -5.924,-1.297 -5.929,-1.317 -5.932,-1.33 -5.936,-1.342 -5.938,-1.354 l 5.775,0 c 0.077,0 0.142,0.062 0.145,0.139 l 0,0.001 c 0.004,0.108 0.01,0.218 0.014,0.331 0.002,0.112 0.004,0.229 0.007,0.345 0.003,0.117 -0.001,0.236 -0.001,0.356 C 0.002,-0.121 0.001,-0.061 0,0"
             style="fill:#34495e;fill-opacity:1;fill-rule:nonzero;stroke:none"
             id="path3107" /></g><g
           id="g3109"
           transform="translate(98.457,56.5645)"><path
             d="M 0,0 C 0.077,0.031 0.112,0.121 0.077,0.197 0.062,0.23 0.042,0.269 0.021,0.313 0.001,0.355 -0.021,0.402 -0.044,0.452 -0.075,0.515 -0.108,0.583 -0.144,0.655 -0.18,0.728 -0.218,0.805 -0.259,0.886 -0.278,0.928 -0.299,0.962 -0.32,1.002 -0.341,1.041 -0.362,1.08 -0.384,1.121 -0.429,1.201 -0.474,1.286 -0.522,1.372 -0.571,1.457 -0.623,1.546 -0.677,1.637 -0.702,1.682 -0.729,1.729 -0.757,1.774 -0.785,1.82 -0.814,1.866 -0.843,1.913 -0.902,2.007 -0.962,2.102 -1.022,2.198 -1.151,2.389 -1.28,2.586 -1.423,2.779 L -1.528,2.926 -1.582,3 -1.638,3.071 C -1.712,3.167 -1.786,3.264 -1.86,3.359 -1.936,3.455 -2.015,3.548 -2.091,3.642 -2.13,3.688 -2.167,3.735 -2.207,3.78 -2.247,3.825 -2.286,3.871 -2.325,3.916 -2.365,3.961 -2.404,4.006 -2.444,4.05 -2.482,4.095 -2.522,4.139 -2.563,4.181 -2.642,4.266 -2.722,4.35 -2.8,4.434 -2.877,4.516 -2.958,4.593 -3.034,4.671 -3.112,4.748 -3.187,4.823 -3.264,4.895 -3.34,4.965 -3.413,5.034 -3.485,5.102 -3.556,5.168 -3.628,5.229 -3.696,5.289 -3.765,5.35 -3.83,5.406 -3.892,5.46 -3.956,5.513 -4.017,5.563 -4.073,5.609 -4.13,5.656 -4.183,5.7 -4.231,5.74 -4.281,5.78 -4.328,5.815 -4.37,5.848 -4.431,5.895 -4.481,5.934 -4.522,5.965 -4.584,6.013 -4.673,6.002 -4.722,5.941 L -7.257,2.874 C -7.304,2.816 -7.3,2.731 -7.247,2.679 -7.226,2.658 -7.201,2.634 -7.174,2.607 -7.147,2.579 -7.116,2.552 -7.086,2.52 c 0.03,-0.033 0.065,-0.069 0.101,-0.107 0.035,-0.037 0.074,-0.077 0.113,-0.119 0.039,-0.045 0.08,-0.09 0.123,-0.138 0.041,-0.049 0.087,-0.096 0.131,-0.149 0.044,-0.054 0.09,-0.109 0.137,-0.165 0.046,-0.055 0.092,-0.114 0.139,-0.176 0.046,-0.06 0.097,-0.12 0.144,-0.186 0.047,-0.063 0.094,-0.128 0.142,-0.195 0.025,-0.032 0.047,-0.066 0.071,-0.1 0.023,-0.035 0.047,-0.07 0.07,-0.103 0.023,-0.035 0.047,-0.069 0.07,-0.104 C -5.821,0.943 -5.8,0.907 -5.776,0.871 -5.731,0.8 -5.686,0.729 -5.642,0.657 -5.599,0.585 -5.556,0.513 -5.513,0.439 l 0.032,-0.052 0.03,-0.056 c 0.02,-0.037 0.04,-0.074 0.059,-0.11 0.082,-0.144 0.153,-0.291 0.225,-0.431 0.033,-0.072 0.066,-0.143 0.098,-0.21 0.015,-0.034 0.032,-0.068 0.048,-0.101 0.014,-0.035 0.028,-0.069 0.042,-0.101 0.029,-0.066 0.056,-0.131 0.083,-0.193 0.024,-0.063 0.048,-0.123 0.071,-0.182 0.012,-0.03 0.023,-0.059 0.034,-0.086 0.011,-0.027 0.022,-0.057 0.03,-0.079 0.016,-0.047 0.032,-0.093 0.047,-0.136 0.014,-0.042 0.027,-0.081 0.041,-0.118 0.016,-0.05 0.032,-0.096 0.046,-0.138 l 0.041,-0.123 c 0.026,-0.079 0.114,-0.12 0.191,-0.089 L 0,0 z"
             style="fill:#34495e;fill-opacity:1;fill-rule:nonzero;stroke:none"
             id="path3111" /></g><g
           id="g3113"
           transform="translate(85.5508,62.0449)"><path
             d="m 0,0 c 0.038,-0.006 0.081,-0.012 0.128,-0.019 0.045,-0.007 0.096,-0.015 0.148,-0.025 0.053,-0.01 0.11,-0.019 0.168,-0.029 0.053,-0.008 0.106,-0.021 0.162,-0.033 L 2.205,3.166 C 2.126,3.178 2.048,3.191 1.97,3.203 1.918,3.211 1.866,3.22 1.813,3.227 1.762,3.232 1.711,3.238 1.661,3.244 1.56,3.256 1.462,3.268 1.366,3.279 1.271,3.287 1.18,3.295 1.092,3.303 1.003,3.31 0.919,3.318 0.839,3.322 0.759,3.326 0.682,3.33 0.61,3.333 0.539,3.337 0.472,3.34 0.41,3.344 0.348,3.344 0.291,3.345 0.239,3.346 0.167,3.347 0.106,3.348 0.058,3.348 -0.021,3.349 -0.085,3.287 -0.089,3.211 L -0.235,0.165 C -0.239,0.09 -0.185,0.024 -0.11,0.015 -0.079,0.01 -0.042,0.005 0,0"
             style="fill:#34495e;fill-opacity:1;fill-rule:nonzero;stroke:none"
             id="path3115" /></g><g
           id="g3117"
           transform="translate(89.8496,60.3682)"><path
             d="m 0,0 c 0.043,-0.031 0.083,-0.062 0.122,-0.089 0.038,-0.027 0.074,-0.054 0.107,-0.077 0.014,-0.011 0.039,-0.028 0.058,-0.042 0.02,-0.016 0.039,-0.029 0.057,-0.043 0.04,-0.03 0.075,-0.056 0.104,-0.078 0.067,-0.05 0.162,-0.032 0.207,0.037 L 2.744,2.889 C 2.79,2.959 2.768,3.053 2.694,3.094 2.663,3.112 2.626,3.134 2.583,3.158 2.563,3.17 2.542,3.182 2.521,3.193 2.497,3.207 2.474,3.221 2.446,3.235 2.388,3.269 2.323,3.304 2.255,3.342 2.187,3.379 2.112,3.419 2.036,3.461 1.962,3.498 1.886,3.537 1.806,3.577 1.724,3.616 1.642,3.66 1.554,3.7 1.465,3.74 1.374,3.782 1.28,3.825 1.188,3.868 1.089,3.909 0.989,3.95 0.89,3.991 0.789,4.036 0.685,4.075 0.657,4.086 0.631,4.096 0.604,4.105 L -0.297,0.196 C -0.247,0.164 -0.2,0.132 -0.154,0.102 -0.101,0.066 -0.05,0.031 0,0"
             style="fill:#34495e;fill-opacity:1;fill-rule:nonzero;stroke:none"
             id="path3119" /></g><g
           id="g3121"
           transform="translate(82.7471,62.0605)"><path
             d="m 0,0 c 0.04,0.005 0.08,0.012 0.119,0.016 l 0.117,0.011 c 0.077,0.009 0.153,0.016 0.225,0.024 0.072,0.005 0.143,0.01 0.209,0.013 0.033,0.003 0.066,0.006 0.1,0.007 0.031,0.003 0.064,0.005 0.091,0.005 0.057,0.002 0.11,0.003 0.16,0.004 0.051,0.002 0.098,0.004 0.141,0.006 l 0.149,0 c 0.048,0 0.091,0.001 0.129,0.001 0.083,0 0.15,0.071 0.144,0.154 L 1.396,3.11 C 1.391,3.193 1.316,3.255 1.233,3.244 1.196,3.239 1.153,3.234 1.105,3.229 1.06,3.223 1.01,3.216 0.955,3.209 0.891,3.199 0.82,3.189 0.747,3.178 0.673,3.167 0.594,3.154 0.511,3.142 0.469,3.136 0.429,3.128 0.388,3.12 0.348,3.112 0.305,3.104 0.262,3.097 0.176,3.08 0.088,3.063 -0.004,3.045 -0.096,3.023 -0.191,3.002 -0.288,2.98 -0.337,2.969 -0.386,2.957 -0.436,2.946 -0.485,2.935 -0.535,2.921 -0.586,2.907 -0.688,2.881 -0.791,2.854 -0.895,2.825 -0.999,2.794 -1.104,2.762 -1.211,2.729 -1.265,2.713 -1.318,2.697 -1.372,2.68 -1.426,2.662 -1.479,2.644 -1.533,2.625 -1.586,2.606 -1.641,2.588 -1.694,2.57 -1.748,2.552 -1.803,2.533 -1.856,2.512 -1.963,2.471 -2.07,2.43 -2.178,2.389 -2.285,2.347 -2.391,2.301 -2.496,2.257 -2.549,2.234 -2.602,2.213 -2.654,2.188 -2.705,2.165 -2.757,2.142 -2.809,2.118 -2.859,2.095 -2.91,2.07 -2.961,2.047 -3.012,2.023 -3.063,2.001 -3.111,1.975 -3.21,1.926 -3.307,1.876 -3.403,1.827 -3.499,1.78 -3.59,1.727 -3.681,1.679 -3.771,1.629 -3.859,1.581 -3.943,1.53 -4.027,1.48 -4.109,1.432 -4.188,1.385 -4.268,1.338 -4.342,1.288 -4.414,1.243 -4.485,1.197 -4.555,1.153 -4.619,1.111 -4.684,1.066 -4.744,1.025 -4.802,0.986 -4.858,0.947 -4.912,0.91 -4.961,0.876 -5.01,0.843 -5.053,0.81 -5.094,0.779 -5.147,0.74 -5.193,0.705 -5.231,0.678 -5.294,0.632 -5.309,0.545 -5.266,0.48 l 1.192,-1.751 c 0.043,-0.063 0.125,-0.082 0.191,-0.044 0.029,0.016 0.067,0.037 0.107,0.059 0.036,0.02 0.074,0.043 0.118,0.066 0.043,0.022 0.09,0.046 0.139,0.073 0.05,0.026 0.104,0.054 0.16,0.083 0.056,0.027 0.117,0.056 0.179,0.087 0.063,0.029 0.127,0.062 0.196,0.092 0.068,0.029 0.138,0.06 0.211,0.092 0.072,0.034 0.148,0.062 0.225,0.093 0.077,0.03 0.155,0.065 0.236,0.093 0.082,0.028 0.164,0.058 0.247,0.089 0.041,0.015 0.083,0.028 0.126,0.042 0.043,0.013 0.085,0.027 0.127,0.041 0.043,0.013 0.086,0.027 0.128,0.042 0.044,0.012 0.088,0.025 0.131,0.037 0.088,0.024 0.176,0.052 0.264,0.074 l 0.264,0.064 c 0.044,0.012 0.087,0.022 0.132,0.031 0.044,0.009 0.088,0.018 0.131,0.027 0.044,0.01 0.088,0.02 0.131,0.028 0.043,0.009 0.086,0.015 0.129,0.023 0.086,0.016 0.172,0.03 0.255,0.045 C -0.163,-0.022 -0.081,-0.012 0,0"
             style="fill:#34495e;fill-opacity:1;fill-rule:nonzero;stroke:none"
             id="path3123" /></g><g
           id="g3125"
           transform="translate(74.626,59.7959)"><path
             d="M 0,0 C -0.032,-0.044 -0.063,-0.088 -0.096,-0.133 -0.127,-0.178 -0.158,-0.222 -0.189,-0.267 -0.221,-0.312 -0.25,-0.358 -0.281,-0.404 -0.342,-0.497 -0.403,-0.588 -0.463,-0.682 -0.521,-0.775 -0.578,-0.87 -0.635,-0.963 l -0.043,-0.07 -0.041,-0.071 C -0.746,-1.151 -0.773,-1.199 -0.801,-1.246 -0.91,-1.433 -1.006,-1.624 -1.104,-1.806 -1.148,-1.897 -1.192,-1.988 -1.236,-2.078 -1.258,-2.122 -1.279,-2.166 -1.3,-2.21 -1.319,-2.254 -1.34,-2.297 -1.359,-2.341 -1.396,-2.427 -1.435,-2.51 -1.471,-2.591 -1.505,-2.672 -1.537,-2.751 -1.568,-2.827 -1.6,-2.902 -1.631,-2.975 -1.657,-3.045 c -0.027,-0.069 -0.051,-0.136 -0.074,-0.198 -0.023,-0.063 -0.045,-0.12 -0.066,-0.174 -0.017,-0.055 -0.035,-0.104 -0.051,-0.149 -0.019,-0.06 -0.037,-0.111 -0.05,-0.153 -0.026,-0.073 0.013,-0.153 0.085,-0.181 l 1.109,-0.425 c 0.07,-0.028 0.149,0.004 0.183,0.072 0.015,0.034 0.035,0.074 0.057,0.121 0.019,0.038 0.038,0.08 0.061,0.127 0.023,0.045 0.049,0.094 0.077,0.148 0.027,0.051 0.055,0.107 0.086,0.166 0.031,0.058 0.066,0.119 0.101,0.181 0.035,0.065 0.073,0.13 0.111,0.197 0.04,0.068 0.082,0.137 0.125,0.209 0.021,0.035 0.043,0.071 0.065,0.107 0.024,0.036 0.047,0.072 0.069,0.108 0.048,0.074 0.096,0.148 0.146,0.224 0.103,0.147 0.205,0.303 0.32,0.453 0.03,0.037 0.057,0.075 0.085,0.113 l 0.042,0.057 0.045,0.057 c 0.06,0.075 0.119,0.15 0.179,0.224 0.06,0.074 0.124,0.146 0.184,0.219 0.032,0.036 0.061,0.073 0.092,0.107 0.032,0.036 0.064,0.071 0.096,0.106 0.031,0.034 0.062,0.069 0.094,0.103 0.031,0.036 0.062,0.069 0.093,0.102 0.065,0.065 0.127,0.131 0.19,0.195 0.061,0.064 0.126,0.123 0.186,0.183 0.062,0.06 0.121,0.119 0.182,0.173 0.061,0.054 0.118,0.107 0.175,0.159 0.056,0.052 0.115,0.098 0.168,0.144 0.054,0.046 0.105,0.09 0.154,0.132 0.048,0.038 0.094,0.074 0.137,0.108 0.042,0.034 0.082,0.066 0.119,0.095 0.018,0.014 0.04,0.031 0.059,0.045 0.02,0.016 0.039,0.03 0.057,0.043 0.039,0.03 0.073,0.056 0.104,0.078 0.066,0.051 0.077,0.147 0.022,0.21 L 1.898,1.92 C 1.844,1.983 1.748,1.988 1.688,1.931 1.66,1.904 1.629,1.874 1.594,1.84 1.578,1.824 1.561,1.809 1.543,1.791 1.524,1.773 1.507,1.757 1.484,1.733 1.441,1.69 1.395,1.644 1.344,1.592 1.295,1.542 1.242,1.488 1.186,1.432 1.134,1.376 1.079,1.316 1.022,1.255 0.967,1.193 0.905,1.13 0.848,1.062 0.788,0.993 0.728,0.923 0.664,0.85 0.602,0.778 0.54,0.701 0.477,0.623 0.414,0.545 0.349,0.466 0.285,0.384 0.223,0.301 0.158,0.216 0.094,0.131 0.061,0.088 0.029,0.045 0,0"
             style="fill:#34495e;fill-opacity:1;fill-rule:nonzero;stroke:none"
             id="path3127" /></g><g
           id="g3129"
           transform="translate(72.3311,54.6113)"><path
             d="m 0,0 c -0.007,-0.037 -0.016,-0.079 -0.025,-0.127 -0.01,-0.044 -0.02,-0.094 -0.03,-0.145 C -0.066,-0.327 -0.076,-0.393 -0.088,-0.458 -0.1,-0.523 -0.111,-0.595 -0.124,-0.67 -0.131,-0.706 -0.137,-0.744 -0.144,-0.783 -0.148,-0.82 -0.153,-0.86 -0.159,-0.9 -0.18,-1.061 -0.207,-1.233 -0.223,-1.417 -0.232,-1.51 -0.241,-1.604 -0.25,-1.7 -0.258,-1.797 -0.264,-1.896 -0.271,-1.995 -0.287,-2.196 -0.289,-2.403 -0.296,-2.613 l -0.003,-0.079 0.001,-0.079 c 0.001,-0.054 0.001,-0.107 0.001,-0.16 0,-0.053 0,-0.106 0.001,-0.159 l 0,-0.081 0.003,-0.079 c 0.005,-0.106 0.009,-0.213 0.014,-0.318 l 0.003,-0.08 0.001,-0.026 0.002,-0.018 0.002,-0.039 c 0.003,-0.051 0.007,-0.102 0.011,-0.152 0.004,-0.051 0.008,-0.101 0.012,-0.151 0.004,-0.053 0.01,-0.105 0.015,-0.157 0.004,-0.051 0.01,-0.102 0.014,-0.154 0.003,-0.025 0.006,-0.051 0.008,-0.076 0.004,-0.024 0.006,-0.05 0.01,-0.074 0.012,-0.099 0.025,-0.195 0.037,-0.29 0.015,-0.095 0.028,-0.188 0.042,-0.278 0.013,-0.089 0.03,-0.175 0.046,-0.26 0,-0.006 0.002,-0.014 0.004,-0.02 C -0.061,-5.412 0,-5.462 0.069,-5.462 l 0.391,0 c 0.083,0 0.149,0.07 0.145,0.154 -0.001,0.023 -0.003,0.044 -0.004,0.068 -0.005,0.08 -0.011,0.165 -0.013,0.251 -0.003,0.086 -0.006,0.174 -0.009,0.264 -0.001,0.09 -0.001,0.183 -0.001,0.277 0,0.023 0,0.047 -0.001,0.07 0.001,0.024 0.001,0.047 0.001,0.07 0.002,0.047 0.003,0.094 0.004,0.142 0.001,0.047 0.002,0.095 0.003,0.143 0.003,0.05 0.005,0.101 0.007,0.151 0.002,0.051 0.005,0.101 0.008,0.153 l 0.002,0.038 0,0.019 0,0.002 0,-0.003 0.001,0.005 0.001,0.009 0.005,0.074 c 0.008,0.099 0.016,0.198 0.024,0.298 l 0.006,0.074 0.008,0.074 c 0.006,0.049 0.012,0.098 0.017,0.148 0.006,0.049 0.012,0.097 0.018,0.147 l 0.007,0.073 0.012,0.073 c 0.029,0.193 0.055,0.382 0.092,0.565 0.018,0.091 0.033,0.18 0.051,0.268 0.019,0.086 0.039,0.171 0.056,0.254 0.035,0.166 0.079,0.321 0.116,0.463 0.008,0.036 0.017,0.071 0.027,0.105 0.009,0.033 0.019,0.065 0.027,0.097 0.02,0.063 0.037,0.122 0.054,0.178 0.018,0.056 0.031,0.107 0.048,0.157 0.017,0.051 0.033,0.1 0.047,0.142 L 1.26,-0.336 C 1.285,-0.257 1.24,-0.172 1.159,-0.15 L 0.18,0.111 C 0.1,0.133 0.017,0.082 0,0"
             style="fill:#34495e;fill-opacity:1;fill-rule:nonzero;stroke:none"
             id="path3131" /></g><g
           id="g3133"
           transform="translate(84.4912,52.7217)"><path
             d="M 0,0 C 0.611,0 1.105,-0.494 1.105,-1.104 1.105,-1.715 0.611,-2.21 0,-2.21 c -0.609,0 -1.104,0.494 -1.104,1.106 C -1.104,-0.494 -0.609,0 0,0 m -1.072,-3.188 c 0.319,-0.156 0.656,-0.229 0.989,-0.229 0.835,0 1.636,0.465 2.027,1.265 0.076,0.153 0.134,0.324 0.171,0.483 l 2.281,9.899 0.87,3.771 0.537,2.336 c 0.063,0.271 -0.154,0.457 -0.37,0.457 -0.127,0 -0.254,-0.065 -0.326,-0.211 L 4.012,12.343 2.396,9.04 -2.107,-0.172 c -0.547,-1.118 -0.082,-2.469 1.035,-3.016"
             style="fill:#34495e;fill-opacity:1;fill-rule:nonzero;stroke:none"
             id="path3135" /></g></g></g><g
       id="g3183"
       transform="translate(-216.36052,-2.538548)"><g
         id="g3185"
         clip-path="url(#clipPath3187)"><g
           id="g3191"
           transform="translate(522.0313,30.668)"><path
             d="m 0,0 c 0,-7.756 -6.287,-14.043 -14.043,-14.043 -7.756,0 -14.043,6.287 -14.043,14.043 0,7.756 6.287,14.043 14.043,14.043 C -6.287,14.043 0,7.756 0,0"
             style="fill:#bdc3c7;fill-opacity:1;fill-rule:nonzero;stroke:none"
             id="path3193" /></g></g></g><text
       transform="scale(1,-1)"
       id="text3195"
       x="287.17865"
       y="-20.795452"><tspan
         style="font-size:20px;font-variant:normal;font-weight:bold;font-stretch:normal;writing-mode:lr-tb;fill:#7f8c8d;fill-opacity:1;fill-rule:nonzero;stroke:none;font-family:Myriad Pro;-inkscape-font-specification:MyriadPro-Bold"
         x="287.17865"
         y="-20.795452"
         id="tspan3197">?</tspan></text>
</g></svg>